PathFileType	4	(X/Y/Z)	C:/Users/opensim2020/Desktop/walking_exp_matlab/subject02_walking08_straight_04.trc																																																																																																																									
DataRate	CameraRate	NumFrames	NumMarkers	Units	OrigDataRate	OrigDataStartFrame	OrigNumFrames																																																																																																																					
100	100	7	41	mm	100	3167	241																																																																																																																					
Frame#	Time	LFHD			RFHD			LBHD			RBHD			C7			T10			CLAV			STRN			RBAK			LSHO			LUPA			LELB			LFRM			LWRA			LWRB			LFIN			RSHO			RUPA			RELB			RFRM			RWRA			RWRB			RFIN			LASI			RASI			LPSI			RPSI			LTHI			LKNE			LTIB			LANK			LHEE			LTOE			RTHI			RKNE			RTIB			RANK			RHEE			RTOE			*39			*40		
		X1	Y1	Z1	X2	Y2	Z2	X3	Y3	Z3	X4	Y4	Z4	X5	Y5	Z5	X6	Y6	Z6	X7	Y7	Z7	X8	Y8	Z8	X9	Y9	Z9	X10	Y10	Z10	X11	Y11	Z11	X12	Y12	Z12	X13	Y13	Z13	X14	Y14	Z14	X15	Y15	Z15	X16	Y16	Z16	X17	Y17	Z17	X18	Y18	Z18	X19	Y19	Z19	X20	Y20	Z20	X21	Y21	Z21	X22	Y22	Z22	X23	Y23	Z23	X24	Y24	Z24	X25	Y25	Z25	X26	Y26	Z26	X27	Y27	Z27	X28	Y28	Z28	X29	Y29	Z29	X30	Y30	Z30	X31	Y31	Z31	X32	Y32	Z32	X33	Y33	Z33	X34	Y34	Z34	X35	Y35	Z35	X36	Y36	Z36	X37	Y37	Z37	X38	Y38	Z38	X39	Y39	Z39	X40	Y40	Z40	X41	Y41	Z41
																																																																																																																												
181	1.8	647.19141	1713.72363	-1404.61621	601.93542	1688.50317	-1269.46948	509.22382	1680.11499	-1455.69739	453.76489	1657.29773	-1323.83264	403.30515	1535.34192	-1388.27466	350.66272	1251.01038	-1382.43872	538.87799	1461.49243	-1404.42786	592.42426	1292.69373	-1402.91479	346.37592	1352.95227	-1321.88	466.05933	1512.01477	-1570.3125	447.38217	1313.59265	-1657.29199	444.68997	1172.90344	-1673.97058	463.47519	1043.1969	-1693.94348	533.92334	921.13153	-1672.0686	486.41507	921.77094	-1703.79944	509.29587	857.63892	-1706.92529	484.36615	1492.21033	-1206.29553	469.62939	1300.21875	-1118.85535	495.15063	1154.35498	-1102.18848	544.49347	1044.12305	-1086.65308	618.48193	932.12775	-1106.29639	571.82446	917.02771	-1077.77539	622.69867	865.76831	-1072.77356	579.94379	999.06671	-1535.05798	598.33459	982.58466	-1280.63098	375.85132	1034.58093	-1442.40076	378.34286	1033.32837	-1327.22253	549.95532	691.21234	-1612.49341	559.01282	496.47168	-1598.42151	461.09903	332.89548	-1580.474	416.6821	112.80492	-1555.76929	397.02759	87.73797	-1495.46216	541.98676	45.78786	-1616.92957	524.45349	672.57965	-1224.21106	516.70331	463.40024	-1272.68005	468.43298	280.24368	-1272.56104	445.03299	89.94944	-1318.81506	411.16702	37.65619	-1376.73035	594.87213	33.8578	-1297.35327	545.13464	1801.17651	-1335.49915	-2845.21997	1034.03516	3360.41943
182	1.81	655.05542	1713.24536	-1404.74524	610.18958	1688.25256	-1269.41907	516.75726	1680.07178	-1455.38184	461.67496	1657.46155	-1323.32947	410.77112	1535.51331	-1387.5791	357.51978	1251.27039	-1381.8999	546.29779	1461.48999	-1403.94922	599.51062	1292.61328	-1401.9751	353.99298	1353.12585	-1320.78882	472.99576	1511.73633	-1569.73621	452.16379	1313.5929	-1656.73364	448.60071	1172.95264	-1673.38843	466.0379	1042.96765	-1693.55176	535.07813	920.27332	-1672.90063	486.9375	921.47296	-1703.81592	509.4838	857.21973	-1707.90063	491.82516	1492.63513	-1205.80981	479.3111	1300.53625	-1117.83276	506.26706	1155.14966	-1100.74866	556.53174	1045.46606	-1085.70813	631.48267	933.96729	-1105.73694	585.76172	918.54059	-1076.43164	637.2149	867.82013	-1072.00574	587.29755	999.52264	-1534.11145	604.64398	982.13586	-1279.54834	382.68616	1034.75012	-1442.43591	384.65771	1033.16895	-1327.20032	559.01648	692.2251	-1612.5293	569.51257	496.56836	-1597.78821	477.64127	328.88068	-1580.81909	442.27676	107.00406	-1557.47546	423.45813	80.75529	-1497.07336	570.54755	45.01428	-1618.13269	528.39252	672.31647	-1224.3136	519.42828	463.51559	-1272.79785	470.08481	280.40463	-1272.8324	445.3183	90.13621	-1318.93555	410.46219	38.26426	-1377.07813	594.85406	33.84573	-1297.26953	553.4696	1801.20398	-1335.44788	-2845.82349	1034.06531	3356.75757
183	1.82	662.76587	1712.63196	-1404.93665	618.36603	1688.01819	-1269.50171	524.32458	1679.88208	-1455.13538	469.65744	1657.5885	-1322.86023	418.3815	1535.67188	-1387.12708	364.38092	1251.41028	-1381.50269	553.61517	1461.36597	-1403.49255	606.55664	1292.37158	-1401.05493	360.79269	1353.50684	-1320.3457	480.00854	1511.33313	-1569.24841	457.16946	1313.39063	-1656.11926	452.44882	1172.91357	-1672.98608	468.49432	1042.73682	-1693.39148	536.43097	919.41284	-1673.77258	488.03973	921.12195	-1704.0238	509.83572	856.83746	-1708.82166	499.23956	1492.89197	-1205.39697	488.73618	1300.96387	-1116.60706	517.76422	1155.88928	-1099.38696	569.45905	1046.61841	-1084.31042	644.69696	935.80127	-1105.2312	599.276	920.13867	-1075.31531	651.26666	869.75714	-1071.3772	594.67328	999.8335	-1533.44214	611.17224	981.71796	-1278.60718	389.60623	1034.73743	-1442.4126	391.42813	1032.92615	-1327.3418	568.0542	693.15167	-1612.61011	579.91083	496.53333	-1597.11633	494.49362	324.84766	-1581.13916	468.31561	101.25874	-1559.12244	450.35403	74.18208	-1498.83484	599.01465	44.41486	-1619.5061	532.44727	672.03571	-1224.39331	521.98523	462.86218	-1272.81421	471.55652	280.4043	-1273.03406	445.56485	90.24107	-1319.09351	410.56696	38.36358	-1377.23779	594.85187	33.81902	-1297.18884	561.76813	1800.88025	-1335.32983	-2845.22754	1034.10986	3360.29419
184	1.83	670.77313	1712.21936	-1405.37256	626.47504	1687.56836	-1269.65198	531.83618	1679.62292	-1455.00439	477.44589	1657.53394	-1322.60864	425.74368	1535.64246	-1386.7915	371.23953	1251.41565	-1381.17957	560.91577	1461.1731	-1403.18042	613.65466	1292.16248	-1400.27112	368.15479	1353.48853	-1319.53784	486.92548	1510.87854	-1568.90417	462.15457	1313.22864	-1655.62781	456.58267	1172.60449	-1672.31567	471.0683	1042.52283	-1693.37744	537.90991	918.54932	-1674.68176	488.98334	920.70087	-1704.17896	510.4729	856.56799	-1709.79041	506.76401	1492.91748	-1204.9386	498.11838	1301.3573	-1115.77515	529.20801	1156.5	-1098.11194	581.77399	1047.74805	-1083.39978	657.64502	937.45428	-1104.75952	612.69055	921.51642	-1074.22644	665.0719	871.49017	-1070.76343	601.91217	999.94427	-1532.94397	617.46332	981.25421	-1277.93909	396.46362	1034.58545	-1442.43372	397.8075	1032.63269	-1327.40186	577.0343	693.86462	-1612.3905	589.79077	496.41376	-1596.49854	511.06122	321.03549	-1581.495	494.4707	95.88123	-1560.75391	477.2973	68.45667	-1500.95874	627.323	44.28343	-1621.06006	536.7951	671.6178	-1224.48389	524.44159	462.64194	-1273.13147	472.74182	280.37	-1273.36621	445.83533	90.4424	-1319.24438	410.74814	38.28839	-1377.80737	594.83112	33.80849	-1297.03662	570.03113	1800.62476	-1335.45007	-2845.15039	1034.08459	3360.26245
185	1.84	678.33466	1711.44958	-1405.70496	634.47974	1687.16345	-1269.9198	539.35229	1679.23083	-1454.94629	485.23642	1657.42102	-1322.38245	432.93893	1535.43591	-1386.44788	378.12369	1251.31055	-1381.02966	568.18903	1460.77246	-1402.88184	620.70563	1291.76404	-1399.58215	375.17899	1353.51184	-1319.14795	493.98499	1510.29883	-1568.6532	467.44965	1312.79309	-1655.01013	460.57297	1172.41577	-1671.97693	473.56116	1042.37585	-1693.53931	539.59473	917.66705	-1675.65662	490.30466	920.25348	-1704.45752	511.34357	856.19769	-1710.82214	514.16296	1493.04565	-1204.65979	507.14883	1301.13232	-1115.03577	539.99231	1156.91016	-1097.29468	593.60608	1048.8927	-1082.88062	670.51819	939.04181	-1104.33386	626.02179	922.8504	-1073.23621	678.94958	873.30493	-1070.23633	609.15088	999.91333	-1532.67212	623.97998	980.81964	-1277.41724	403.37088	1034.2439	-1442.46057	404.45889	1032.2428	-1327.52759	585.64752	694.38232	-1612.4342	599.64362	496.10922	-1595.79663	527.75549	317.21899	-1581.8606	520.258	91.48421	-1563.17969	503.90146	63.18736	-1503.36475	655.45959	44.74158	-1622.84387	541.40485	671.25238	-1224.55457	527.19104	462.56155	-1273.39172	474.16141	280.52719	-1273.56714	446.13705	90.62477	-1319.40369	410.98868	38.60302	-1377.59888	594.84308	33.80352	-1296.92078	578.0658	1800.23425	-1335.65015	-2845.89697	1034.12024	3356.90845
186	1.85	686.18884	1710.75037	-1406.26929	642.44232	1686.62427	-1270.29077	546.83246	1678.71143	-1455.07813	493.06689	1657.19666	-1322.30811	440.25522	1535.18152	-1386.32605	384.99454	1251.11719	-1380.99829	575.52643	1460.39038	-1402.76062	627.80969	1291.27893	-1398.99963	381.87952	1353.58875	-1319.31567	501.01794	1509.61499	-1568.4613	472.59616	1312.47717	-1654.99841	464.70874	1172.14587	-1671.7522	476.32599	1042.01172	-1693.65662	541.45941	916.784	-1676.69934	491.81268	919.79425	-1704.82593	512.32697	855.71143	-1711.88049	521.34027	1493.0155	-1204.58643	515.84448	1301.23718	-1114.80298	551.31165	1157.40637	-1096.4364	605.79688	1049.94019	-1082.16675	683.30585	940.64014	-1104.06323	639.04724	924.16486	-1072.39563	692.36731	874.84302	-1069.73364	616.4245	999.76703	-1532.55688	630.53668	980.40314	-1277.04504	410.3653	1033.78833	-1442.47412	411.16873	1031.70129	-1327.68396	594.19159	694.68994	-1612.36133	609.41827	495.66791	-1595.12427	544.48297	313.62061	-1582.52161	546.01489	87.4791	-1565.71802	530.3031	58.39026	-1506.06421	683.33319	45.78544	-1624.75159	546.04901	670.78943	-1224.63794	530.22021	462.13699	-1273.32422	475.44263	280.62979	-1273.79443	446.44446	90.80917	-1319.58997	410.94962	38.57206	-1378.21094	594.8454	33.77476	-1296.80029	586.16711	1799.78394	-1336.00024	-2845.90869	1034.07605	3357.0708
187	1.86	693.65869	1709.84717	-1406.7865	650.35455	1685.96851	-1270.71179	554.25916	1678.11279	-1455.29858	500.75958	1656.86963	-1322.30103	447.55273	1534.81567	-1386.32349	391.85989	1250.81177	-1381.07764	582.46185	1459.70129	-1402.6145	634.85193	1290.73303	-1398.5675	389.09735	1353.30713	-1319.04468	508.08633	1508.91992	-1568.38452	478.05844	1312.13611	-1654.96973	468.88446	1171.81567	-1671.5769	479.36221	1041.47375	-1693.58057	543.45087	915.85303	-1677.77173	493.50256	919.24622	-1705.14795	513.46503	855.15131	-1712.83447	528.95905	1492.7334	-1204.23474	525.20361	1301.12268	-1114.26929	562.04718	1157.78735	-1095.95764	617.5083	1050.65649	-1081.62976	695.5921	941.8739	-1103.88672	651.86694	925.31348	-1071.71509	705.54034	876.47443	-1069.35913	623.5354	999.50049	-1532.49268	637.22815	980.00287	-1276.81482	417.36795	1033.17773	-1442.53589	417.8562	1031.09363	-1327.86401	602.52423	694.80151	-1612.19458	619.08942	495.10172	-1594.4104	561.09753	310.22549	-1583.51025	571.29962	84.34918	-1568.80371	556.36981	54.21347	-1509.08826	710.9491	47.52834	-1626.67932	550.84503	670.33496	-1224.7738	532.72949	461.59344	-1273.72559	476.85568	280.72922	-1274.01843	446.75656	91.02876	-1319.84814	410.94897	38.97429	-1378.12927	594.84509	33.77515	-1296.68518	594.17627	1799.18213	-1336.42578	-2845.20337	1033.92615	3360.28198
